<?xml version="1.0" encoding="UTF-8" standalone="no"?>
<!-- Created with Inkscape (http://www.inkscape.org/) -->

<svg
   width="210mm"
   height="297mm"
   viewBox="0 0 210 297"
   version="1.1"
   id="svg1"
   inkscape:version="1.4.2 (f4327f4, 2025-05-13)"
   sodipodi:docname="ch.svg"
   xmlns:inkscape="http://www.inkscape.org/namespaces/inkscape"
   xmlns:sodipodi="http://sodipodi.sourceforge.net/DTD/sodipodi-0.dtd"
   xmlns="http://www.w3.org/2000/svg"
   xmlns:svg="http://www.w3.org/2000/svg">
  <sodipodi:namedview
     id="namedview1"
     pagecolor="#ffffff"
     bordercolor="#000000"
     borderopacity="0.25"
     inkscape:showpageshadow="2"
     inkscape:pageopacity="0.0"
     inkscape:pagecheckerboard="0"
     inkscape:deskcolor="#d1d1d1"
     inkscape:document-units="mm"
     inkscape:zoom="0.68862935"
     inkscape:cx="396.43968"
     inkscape:cy="561.25984"
     inkscape:window-width="1920"
     inkscape:window-height="991"
     inkscape:window-x="-9"
     inkscape:window-y="-9"
     inkscape:window-maximized="1"
     inkscape:current-layer="layer1" />
  <defs
     id="defs1" />
  <g
     inkscape:label="Layer 1"
     inkscape:groupmode="layer"
     id="layer1">
    <path
       id="text2"
       style="font-size:56.4444px;font-family:'Times New Roman';-inkscape-font-specification:'Times New Roman, ';stroke-width:0.264583"
       d="m 173.94694,123.4432 q 1.2678,0 2.14974,0.9095 0.9095,0.88195 0.9095,2.14974 0,1.2678 -0.9095,2.1773 -0.88194,0.88194 -2.14974,0.88194 -1.26779,0 -2.1773,-0.88194 -0.88194,-0.9095 -0.88194,-2.1773 0,-1.26779 0.88194,-2.14974 0.90951,-0.9095 2.1773,-0.9095 z m -0.0551,20.643 q 1.29536,0 2.1773,0.9095 0.9095,0.9095 0.9095,2.1773 0,1.26779 -0.9095,2.1773 -0.9095,0.88194 -2.1773,0.88194 -1.26779,0 -2.1773,-0.88194 -0.88194,-0.90951 -0.88194,-2.1773 0,-1.2678 0.88194,-2.1773 0.90951,-0.9095 2.1773,-0.9095 z m 9.03992,-32.65948 v -1.15756 q 4.18924,2.06706 6.97287,4.87826 3.94119,4.02386 6.09093,9.45333 2.14973,5.40191 2.14973,11.27234 0,8.54383 -4.21679,15.57182 -4.18923,7.05555 -10.99674,10.08724 v -1.01975 q 3.38998,-1.90169 5.56727,-5.15386 2.20486,-3.22461 3.25217,-8.2131 1.07487,-5.01606 1.07487,-10.44552 0,-5.87044 -0.9095,-10.72113 -0.68902,-3.80338 -1.73633,-6.09093 -1.01975,-2.28754 -2.72851,-4.40971 -1.70877,-2.12218 -4.51997,-4.05143 z m -167.97807,33.70594 -6.12022,4.80247 q -4.7439028,3.36759 -7.2329875,3.36759 -0.3514002,0 -0.3514002,-0.3514 0,-0.5271 0.7028004,-0.67352 2.7233516,-0.5271 7.3794043,-4.07038 l 8.140771,-6.50091 q 6.676604,-5.47598 10.278456,-5.47598 1.903418,0 1.903418,1.46416 0.644234,0 0.644234,0.58567 0,0.49782 -0.732084,0.5271 -0.585667,2.07912 -2.196251,4.12895 -1.932701,2.4598 -3.718986,2.4598 -1.0542,0 -1.0542,-0.96635 0,-1.37631 2.284101,-3.57256 2.020551,-1.96199 3.631135,-2.63551 l 0.05857,-0.32211 q 0,-0.40997 -0.409967,-0.40997 -1.903418,0 -6.998721,5.24172 -5.066019,5.24172 -5.066019,7.32084 0,1.31775 1.112767,1.84485 0.556384,0.26355 2.079118,0.40997 1.112767,0.11713 1.112767,0.49781 0,0.58567 -2.049834,0.58567 -4.568203,0 -4.568203,-4.15824 0,-1.5813 1.171334,-4.09967 z m 13.060374,-5.6224 q -0.849217,0.38068 -2.401234,1.9327 -1.669151,1.63987 -1.669151,2.2841 l 0.234267,0.23427 q 0.79065,0 2.196251,-1.81557 1.200617,-1.55201 1.639867,-2.6355 z m 9.312106,7.08657 q 10.600573,-9.42924 14.173141,-9.42924 1.581301,0 1.581301,1.66915 0,1.78629 -5.036736,6.79374 -5.007453,5.00745 -5.007453,5.88595 0,0.81994 1.610584,0.81994 0.409967,0 0.409967,0.46853 0,0.55639 -1.434884,0.55639 -2.547651,0 -2.547651,-2.13769 0,-2.4598 3.923969,-6.47162 4.802469,-4.9196 5.183153,-5.59312 0.02928,-0.3514 -0.351401,-0.3514 -1.610584,0 -8.199338,5.59312 -4.919603,4.15824 -7.906504,7.14514 -1.200618,1.20062 -1.961985,1.757 -0.43925,0 -0.849217,-0.55638 -0.380684,-0.55639 -0.380684,-1.02492 0,-0.67352 4.011819,-5.76882 l 4.656053,-5.85667 q -2.840485,2.66478 -7.086571,6.00308 l -5.622403,4.30466 q -4.246086,2.89905 -6.530187,2.89905 -0.3514,0 -0.3514,-0.3514 0,-0.5271 0.585667,-0.67352 2.430518,-0.61495 4.275369,-1.757 3.426152,-2.1084 10.278456,-7.9065 l 5.915237,-5.00746 q 1.874134,-1.5813 10.395589,-11.56692 7.672238,-8.98999 8.404322,-8.98999 1.0542,0 1.0542,1.31775 0,0.90779 -5.885953,7.84794 z m 29.019803,1.20062 q -5.095303,4.97817 -7.496538,4.97817 -1.815568,0 -1.815568,-2.02055 0,-2.37195 2.108401,-5.32957 l 3.777553,-4.45107 -8.375039,6.94015 q -7.08657,5.38814 -9.956339,5.38814 -0.3514,0 -0.3514,-0.38068 0,-0.49782 0.849217,-0.67352 1.083484,-0.20498 2.547652,-0.8785 1.698434,-0.79065 7.174421,-5.0953 2.518368,-1.96199 7.408687,-6.14951 0.819934,-0.84922 2.635502,-2.31338 0.732083,-0.46854 1.347034,-0.46854 1.698434,0 1.698434,1.11277 0,1.14205 -4.099669,5.68097 -4.099669,4.53892 -4.099669,6.47162 0,0.49782 0.5271,0.49782 1.757001,0 7.818655,-6.70589 6.061653,-6.70589 6.881587,-6.70589 0.409967,0 0.790651,0.43925 0.409967,0.40997 0.409967,0.84922 0,0.7028 -4.53892,5.94452 -4.538919,5.21244 -4.538919,6.6766 0,0.67352 0.995634,0.70281 0.995634,0.0293 0.995634,0.49781 0,0.55639 -1.464168,0.55639 -2.459801,0 -2.459801,-1.87414 0,-1.34703 1.229901,-3.6897 z m 25.681495,-13.61676 -10.542006,0.40997 q -0.878501,0 -0.878501,-0.46854 0,-0.38068 1.434884,-0.58566 2.020552,-0.32212 5.68097,-0.55639 4.070386,-0.23426 5.710254,-0.43925 l 4.187519,-5.00745 q 3.367582,-3.98253 4.070382,-3.98253 0.8785,0 0.8785,1.11276 0,1.20062 -5.329566,7.87722 3.074756,-0.20498 5.095306,-0.20498 1.34703,0 1.34703,0.5271 0,0.58567 -3.25045,0.79065 l -4.45107,0.14642 -6.530187,8.17005 q -6.178787,8.05292 -6.178787,9.60494 0,0.73209 0.995634,0.76137 0.995634,0 0.995634,0.46853 0,0.55639 -1.288467,0.55639 -2.606219,0 -2.606219,-2.10841 0,-1.66915 1.698435,-4.77318 l 2.547651,-4.27537 -8.667872,6.82302 q -5.417419,4.27537 -8.345754,4.27537 -0.351401,0 -0.351401,-0.38068 0,-0.49782 0.585667,-0.64424 0.995634,-0.20498 3.016186,-1.02492 1.961984,-1.02491 8.726438,-6.3252 5.007453,-3.89468 6.29592,-5.06602 2.313385,-2.1084 5.15387,-5.68097 z m 12.269722,5.59312 -7.847934,6.58876 -5.358853,4.24608 q -3.836119,2.69407 -6.29592,2.69407 -0.3514,0 -0.3514,-0.38068 0,-0.49782 0.585667,-0.64424 3.865402,-0.90778 10.454156,-6.41305 l 8.345754,-6.96944 q 2.86977,-2.40123 9.25354,-9.51709 l 8.19934,-9.37067 q 1.9327,-2.31338 2.72335,-2.31338 1.02492,0 1.02492,1.02491 0,1.28847 -2.51837,4.3925 l -3.63114,4.12896 -11.68405,13.47034 q 4.33393,-3.10404 6.35448,-3.10404 2.37195,0 2.37195,2.34267 0,2.6355 -4.62677,4.50964 -3.74826,1.52273 -6.99872,1.55201 1.0542,2.48909 2.72336,5.65169 0.55638,0.67352 1.81556,0.67352 0.40997,0 0.40997,0.46853 0,0.64424 -2.2841,0.64424 -1.11277,0 -1.90342,-0.58567 -0.73208,-0.49782 -3.22117,-5.76882 l -2.928332,3.514 q -2.459802,2.86977 -2.928335,2.86977 -1.259185,0 -1.259185,-1.46417 0,-0.84922 4.597486,-6.41305 z m -0.8785,5.56384 q 4.39251,-0.55639 7.23299,-2.40124 2.84049,-1.84485 2.84049,-3.13332 0,-0.67351 -0.84922,-0.67351 -3.22117,0 -9.22426,6.20807 z m 32.09455,-14.08529 q -1.4056,0 -1.4056,-1.43489 0,-1.20062 1.43489,-2.16697 1.28847,-0.8785 2.57693,-0.8785 1.52274,0 1.52274,1.66915 0,1.20062 -1.52274,2.04984 -1.31775,0.76137 -2.60622,0.76137 z M 122.57,151.54572 q 0,0.79065 1.69844,0.79065 0.38068,0 0.38068,0.46853 0,0.55639 -1.9327,0.55639 -2.19625,0 -2.19625,-2.10841 0,-2.4598 6.53019,-10.27845 l -7.99436,6.53019 q -7.08657,5.7981 -10.27845,5.7981 -0.3514,0 -0.3514,-0.38068 0,-0.5271 0.58566,-0.64424 1.84485,-0.3514 3.36759,-1.20062 1.90342,-1.0542 8.0822,-5.94452 l 8.96071,-7.52582 q 0.58566,-0.20498 1.5813,-0.20498 0.99563,0 0.99563,1.14205 0,1.2299 -4.71462,6.64732 -4.71462,5.38814 -4.71462,6.35449 z" />
  </g>
</svg>
