<?xml version="1.0" encoding="UTF-8" standalone="no"?>
<!-- Created with Inkscape (http://www.inkscape.org/) -->

<svg
   width="210mm"
   height="297mm"
   viewBox="0 0 210 297"
   version="1.1"
   id="svg1"
   inkscape:version="1.4.2 (f4327f4, 2025-05-13)"
   sodipodi:docname="hbday_text.svg"
   xmlns:inkscape="http://www.inkscape.org/namespaces/inkscape"
   xmlns:sodipodi="http://sodipodi.sourceforge.net/DTD/sodipodi-0.dtd"
   xmlns="http://www.w3.org/2000/svg"
   xmlns:svg="http://www.w3.org/2000/svg">
  <sodipodi:namedview
     id="namedview1"
     pagecolor="#ffffff"
     bordercolor="#000000"
     borderopacity="0.25"
     inkscape:showpageshadow="2"
     inkscape:pageopacity="0.0"
     inkscape:pagecheckerboard="0"
     inkscape:deskcolor="#d1d1d1"
     inkscape:document-units="mm"
     inkscape:zoom="0.68862935"
     inkscape:cx="396.43968"
     inkscape:cy="561.25984"
     inkscape:window-width="1920"
     inkscape:window-height="991"
     inkscape:window-x="-9"
     inkscape:window-y="-9"
     inkscape:window-maximized="1"
     inkscape:current-layer="layer1" />
  <defs
     id="defs1" />
  <g
     inkscape:label="Layer 1"
     inkscape:groupmode="layer"
     id="layer1">
    <g
       id="text1"
       style="font-size:68.7917px;font-family:'Vladimir Script';-inkscape-font-specification:'Vladimir Script';stroke-width:0.264583"
       aria-label="happy&#10;birthday">
      <path
         id="path3"
         d="m 30.429265,187.58206 q 1.746664,-1.2764 3.459739,-1.2764 1.477946,0 2.452048,1.07487 1.007691,1.07487 1.007691,2.5864 0,4.29948 -4.803327,9.40512 -4.870506,5.2064 -9.136398,5.2064 -4.064354,0 -4.064354,-4.19871 0,-2.21692 1.914613,-6.18051 -5.206403,4.66897 -7.322554,6.24769 -5.6094797,4.26589 -8.7333217,4.26589 -0.4030764,0 -0.4030764,-0.40308 0,-0.60461 0.8733322,-0.77256 3.4261492,-0.70538 9.2707569,-5.34076 6.482812,-5.13922 12.361009,-12.42819 8.800501,-10.91665 15.081774,-16.19023 6.549992,-5.47512 8.699732,-5.47512 2.116151,0 2.116151,2.08256 0,2.2841 -4.265891,7.12101 -3.627688,4.09795 -13.43588,10.37922 -1.377177,0.80615 -3.997174,2.51923 -0.436666,0.3023 -1.07487,1.37717 z m 21.430227,-21.12792 q 0,-0.40307 -0.335897,-0.40307 -1.545126,0 -9.169987,7.85999 -6.180505,6.34845 -8.867681,9.70742 13.301521,-8.1623 17.063567,-14.3428 1.309998,-2.11615 1.309998,-2.82154 z m -20.321767,29.18945 q 3.191021,-3.82922 3.191021,-6.24768 0,-1.71308 -1.410767,-1.71308 -1.645895,0 -3.023073,1.61231 -1.377178,1.57871 -1.377178,3.2582 0,2.2841 2.619997,3.09025 z m -0.772563,1.04128 q -3.123842,-1.31 -3.123842,-4.09794 0,-1.04128 0.705383,-2.58641 -6.852298,8.69973 -6.852298,11.65563 0,1.37718 1.309998,1.37718 3.123842,0 7.960759,-6.34846 z m 31.339189,-17.2651 q -1.612306,0 -1.612306,-1.6459 0,-1.37718 1.645895,-2.48564 1.477947,-1.00769 2.955894,-1.00769 1.746664,0 1.746664,1.91462 0,1.37717 -1.746664,2.35128 -1.511537,0.87333 -2.989483,0.87333 z m -14.846647,23.27766 q 0,0.90692 1.948203,0.90692 0.436666,0 0.436666,0.53744 0,0.6382 -2.21692,0.6382 -2.519228,0 -2.519228,-2.41846 0,-2.82153 7.490503,-11.78998 l -9.169988,7.4905 q -8.128707,6.65076 -11.789984,6.65076 -0.403076,0 -0.403076,-0.43667 0,-0.60461 0.671794,-0.73897 2.116151,-0.40308 3.862815,-1.37718 2.18333,-1.20923 9.270757,-6.81871 l 10.278448,-8.63255 q 0.671793,-0.23513 1.813843,-0.23513 1.14205,0 1.14205,1.31 0,1.41077 -5.407941,7.62486 -5.407942,6.18051 -5.407942,7.28897 z m 20.859203,-12.83127 q -0.167949,-1.10846 -0.167949,-1.34358 0,-0.90693 2.149741,-2.82154 2.18333,-1.9482 2.989483,-1.9482 0.772563,0 0.772563,0.70538 0,0.60462 -0.839743,2.01538 3.795636,0 3.795636,3.02308 0,2.38487 -4.904096,7.62486 -4.904096,5.2064 -4.904096,5.84461 0,0.60461 0.638205,0.67179 l 1.10846,-0.0336 q 0.470256,0 0.470256,0.53744 0,0.67179 -1.948203,0.67179 -2.485638,0 -2.485638,-2.21692 0,-2.18333 2.485638,-5.44153 1.545126,-2.04897 4.601789,-5.07205 2.485637,-2.45204 2.485637,-2.68717 0,-0.50385 -0.571024,-0.50385 -0.503846,0 -1.914613,0.40308 -1.410768,0.36949 -1.679485,0.60461 -15.61921,14.81306 -21.060741,14.81306 -0.403076,0 -0.403076,-0.43667 0,-0.57102 0.906921,-0.73897 1.10846,-0.20154 2.922304,-1.04128 2.720766,-1.20923 8.128707,-5.74384 4.803327,-3.99717 7.423324,-6.88589 z m 27.442781,-7.08742 -12.092292,0.47025 q -1.007691,0 -1.007691,-0.53743 0,-0.43667 1.645895,-0.6718 2.31769,-0.36948 6.516402,-0.6382 4.668968,-0.26872 6.549991,-0.50385 l 4.803327,-5.74383 q 3.86282,-4.5682 4.66897,-4.5682 1.00769,0 1.00769,1.27641 0,1.37717 -6.11333,9.03562 3.52692,-0.23512 5.84461,-0.23512 1.54513,0 1.54513,0.60461 0,0.6718 -3.72846,0.90692 l -5.10563,0.16795 -7.490506,9.37153 q -7.087426,9.23716 -7.087426,11.01742 0,0.83974 1.14205,0.87333 1.142049,0 1.142049,0.53744 0,0.6382 -1.477946,0.6382 -2.989484,0 -2.989484,-2.41846 0,-1.91461 1.948203,-5.47512 l 2.922304,-4.9041 -9.942551,7.8264 q -6.214094,4.9041 -9.573064,4.9041 -0.403076,0 -0.403076,-0.43667 0,-0.57102 0.671793,-0.73897 1.14205,-0.23513 3.459739,-1.17564 2.25051,-1.17564 10.009731,-7.25537 5.743838,-4.46743 7.221785,-5.81102 2.653586,-2.41846 5.911787,-6.5164 z m 11.622032,14.24203 q 12.15947,-10.81588 16.25742,-10.81588 1.81384,0 1.81384,1.91461 0,2.04897 -5.77743,7.79281 -5.74384,5.74384 -5.74384,6.75153 0,0.94051 1.84744,0.94051 0.47025,0 0.47025,0.53744 0,0.6382 -1.64589,0.6382 -2.9223,0 -2.9223,-2.45205 0,-2.82153 4.50101,-7.42332 5.50872,-5.64307 5.94538,-6.41563 0.0336,-0.40308 -0.40307,-0.40308 -1.84744,0 -9.40512,6.41563 -5.64307,4.76974 -9.06922,8.19589 -1.37718,1.37718 -2.25051,2.01538 -0.50384,0 -0.9741,-0.6382 -0.436666,-0.63821 -0.436666,-1.17564 0,-0.77257 4.601786,-6.61717 l 5.34076,-6.71794 q -3.2582,3.05666 -8.1287,6.88588 l -6.449225,4.93769 q -4.870506,3.32538 -7.490502,3.32538 -0.403077,0 -0.403077,-0.40308 0,-0.60461 0.671794,-0.77256 2.787945,-0.70538 4.904096,-2.01538 3.929995,-2.41846 11.789984,-9.06922 l 6.78512,-5.74384 q 2.14974,-1.81384 11.92434,-13.26793 8.8005,-10.31204 9.64025,-10.31204 1.20922,0 1.20922,1.51154 0,1.04128 -6.75152,9.00204 z m 21.96767,-0.36949 -6.34845,4.87051 q -4.70256,3.19102 -7.28897,3.19102 -0.40307,0 -0.40307,-0.40308 0,-0.60461 0.67179,-0.77256 2.58641,-0.6382 4.70256,-1.91461 3.19102,-1.88102 8.93486,-6.91948 5.77743,-5.03845 8.90127,-6.88589 2.21692,-1.31 3.99717,-1.31 2.98948,0 3.12384,2.48564 5.03846,-6.34845 11.4205,-13.57024 9.80819,-11.15178 11.72281,-11.15178 1.07487,0 1.07487,1.20923 0,1.00769 -2.72077,3.86282 -5.07204,5.27358 -15.11536,17.06356 -12.32742,14.47716 -12.32742,16.35819 0,0.77256 1.10846,0.80615 1.10846,0.0336 1.10846,0.57103 0,0.67179 -1.61231,0.67179 -2.65358,0 -2.65358,-2.18333 0,-1.74667 2.21692,-5.44153 -6.61718,7.05383 -9.40512,7.05383 -2.58641,0 -2.58641,-2.75435 0,-1.54513 1.47795,-4.83692 z m 2.04897,5.84461 q 1.91461,0 7.59127,-5.71025 5.67666,-5.74384 5.67666,-7.65845 0,-0.9741 -0.90692,-0.9741 -2.35128,0 -7.69204,5.57589 -5.34076,5.57589 -5.34076,8.06153 0,0.70538 0.67179,0.70538 z m 22.37073,-4.83692 q -8.96844,7.05384 -12.361,7.05384 -0.40308,0 -0.40308,-0.43667 0,-0.60461 0.80615,-0.73897 3.15743,-0.50384 8.73332,-4.87051 l 4.33307,-3.39255 6.95307,-5.5423 q 4.76974,-3.2918 8.1623,-3.2918 2.51923,0 2.82153,2.51923 1.31,-1.24282 1.81385,-1.24282 1.10846,0 1.10846,0.90692 0,1.17564 -5.17282,7.1882 -5.13922,6.01256 -5.13922,7.02025 0,0.70538 1.10846,0.73897 1.10846,0.0336 1.10846,0.57103 0,0.67179 -2.2841,0.67179 -2.25051,0 -2.25051,-1.98179 0,-1.57872 1.81384,-4.50102 l -4.16512,3.52692 q -3.05666,2.2841 -4.8705,2.2841 -2.88872,0 -2.88872,-2.92231 0,-1.6123 0.77256,-3.56051 z m 16.69408,-9.84178 q -1.98179,0 -8.19588,5.91179 -6.2141,5.91179 -6.2141,7.89358 0,0.90692 0.87334,0.90692 1.91461,0 8.19588,-5.77743 6.31487,-5.81102 6.31487,-7.8264 0,-1.10846 -0.97411,-1.10846 z m 22.90818,15.85434 2.08256,-0.0672 q 0.43667,0 0.43667,0.53744 0,0.60461 -1.54513,0.73897 l -2.08256,0.10077 -9.37152,11.58844 q -8.43102,9.60666 -11.95794,9.60666 -1.67948,0 -1.67948,-2.25051 0,-5.00487 6.58358,-11.58845 6.61717,-6.54999 13.60383,-8.1287 l 6.95306,-8.96845 -5.50871,4.90409 q -5.03845,4.16512 -6.8523,4.16512 -2.11615,0 -2.11615,-2.98948 0,-2.58641 2.45205,-6.07973 l 4.09795,-5.17282 q -3.96359,3.52692 -9.10281,7.62486 -4.19872,3.32538 -5.67666,4.29948 -4.06436,2.72077 -6.58358,2.72077 -0.40308,0 -0.40308,-0.43667 0,-0.57102 0.67179,-0.73897 4.23231,-1.04128 11.68922,-7.1546 l 5.8782,-4.83692 3.79563,-3.35897 q 3.19102,-2.75436 3.5941,-2.75436 0.87333,0 1.6459,0.60462 0.80615,0.57102 0.80615,1.41077 l -5.30717,6.14691 q -5.30718,6.28127 -5.30718,8.36384 0,0.60461 0.6718,0.60461 2.01538,0 9.84178,-7.45691 5.74384,-5.47512 9.53947,-9.77461 0.77257,-0.87333 1.10846,-0.87333 0.63821,0 1.31,0.47026 0.70539,0.43666 0.70539,1.04128 0,0.3359 -0.43667,0.80615 -6.1805,6.71794 -13.53665,16.89562 z m -5.10563,1.98179 q -6.75153,2.18333 -12.26024,7.96076 -5.47512,5.81102 -5.47512,9.53947 0,1.14205 0.80615,1.14205 3.22461,0 16.92921,-18.64228 z M 25.122092,111.03114 q 12.159471,-10.81588 16.257414,-10.81588 1.813844,0 1.813844,1.91461 0,2.04897 -5.777428,7.79281 -5.743838,5.74384 -5.743838,6.75153 0,0.94051 1.847433,0.94051 0.470256,0 0.470256,0.53744 0,0.6382 -1.645895,0.6382 -2.922304,0 -2.922304,-2.45205 0,-2.82153 4.501019,-7.42332 5.508711,-5.64307 5.945377,-6.41563 0.03359,-0.40308 -0.403076,-0.40308 -1.847434,0 -9.405116,6.41563 -5.643069,4.76974 -9.069218,8.19589 -1.377178,1.37718 -2.25051,2.01538 -0.503846,0 -0.974101,-0.6382 -0.436667,-0.63821 -0.436667,-1.17564 0,-0.77256 4.601789,-6.61717 l 5.340762,-6.71794 q -3.258201,3.05666 -8.128707,6.88589 l -6.449222,4.93768 q -4.8705062,3.32538 -7.4905027,3.32538 -0.4030764,0 -0.4030764,-0.40307 0,-0.60462 0.671794,-0.77257 2.787945,-0.70538 4.9040961,-2.01538 3.929995,-2.41846 11.789984,-9.06922 l 6.785119,-5.74384 q 2.149741,-1.813839 11.924343,-13.267927 8.800501,-10.312037 9.640243,-10.312037 1.20923,0 1.20923,1.511537 0,1.04128 -6.75153,9.002039 z m 20.691254,0.63821 q -8.968449,7.05383 -12.361009,7.05383 -0.403076,0 -0.403076,-0.43666 0,-0.60462 0.806152,-0.73898 3.157432,-0.50384 8.733322,-4.8705 l 4.333071,-3.39256 6.953068,-5.5423 q 4.769737,-3.29179 8.162296,-3.29179 2.519228,0 2.821535,2.51922 1.309998,-1.24281 1.813844,-1.24281 1.10846,0 1.10846,0.90692 0,1.17564 -5.172814,7.18819 -5.139224,6.01256 -5.139224,7.02025 0,0.70538 1.10846,0.73897 1.10846,0.0336 1.10846,0.57103 0,0.67179 -2.284099,0.67179 -2.25051,0 -2.25051,-1.98179 0,-1.57872 1.813844,-4.50102 l -4.165123,3.52692 q -3.056662,2.2841 -4.870506,2.2841 -2.888714,0 -2.888714,-2.92231 0,-1.6123 0.772563,-3.5605 z m 16.69408,-9.84179 q -1.981792,0 -8.195886,5.91179 -6.214094,5.91179 -6.214094,7.89358 0,0.90692 0.873332,0.90692 1.914612,0 8.195886,-5.77743 6.314863,-5.81101 6.314863,-7.8264 0,-1.10846 -0.974101,-1.10846 z m 19.549203,1.14205 q -4.43384,3.93 -9.841782,8.1623 l -6.012556,4.60179 q -4.40025,2.98948 -7.053837,2.98948 -0.403076,0 -0.403076,-0.43666 0,-0.57103 0.839742,-0.73898 1.14205,-0.20153 2.922304,-1.00769 2.116151,-0.90692 8.867681,-6.24768 l 8.330245,-6.95307 q 7.221785,-5.945376 7.75922,-5.945376 1.242819,0 1.242819,1.377178 0,0.537435 -3.35897,5.004868 3.963585,-3.32538 6.449222,-3.32538 2.619997,0 2.619997,2.82153 0,3.66128 -4.097943,8.26307 -3.526919,3.99717 -7.356144,5.97896 0.403076,0.10077 3.963584,0.10077 0.436666,0 0.436666,0.53744 0,0.70538 -2.619996,0.70538 -2.149741,0 -3.627688,-0.6382 -0.806153,0.3023 -1.645895,0.3023 -3.35897,0 -3.123842,-4.70255 l -17.970489,20.221 q -0.638204,0.73897 -1.175639,0.73897 -1.007691,0 -1.007691,-1.6459 0,-1.6123 6.885888,-9.4387 l 6.986657,-7.62486 z m -1.242819,12.83127 q 3.896405,-2.21692 7.221785,-6.65076 3.35897,-4.43384 3.35897,-5.8782 0,-0.94051 -1.041281,-0.94051 -1.981792,0 -6.281273,3.76205 -3.090253,2.68717 -5.57589,5.50871 0.974101,0 1.444357,1.71307 0.638204,2.18333 0.873332,2.48564 z m -1.343588,0.47025 -0.604615,-2.21692 q -0.503845,-1.78025 -0.738973,-1.78025 -0.671794,0 -0.671794,2.2841 0,1.88102 1.343588,1.88102 0.369487,0 0.671794,-0.16795 z m 30.297908,-13.30152 q -4.43384,3.93 -9.841781,8.1623 l -6.012556,4.60179 q -4.40025,2.98948 -7.053837,2.98948 -0.403076,0 -0.403076,-0.43666 0,-0.57103 0.839743,-0.73898 1.142049,-0.20153 2.922303,-1.00769 2.116151,-0.90692 8.867681,-6.24768 l 8.330243,-6.95307 q 7.22179,-5.945376 7.75922,-5.945376 1.24282,0 1.24282,1.377178 0,0.537435 -3.35897,5.004868 3.96359,-3.32538 6.44922,-3.32538 2.62,0 2.62,2.82153 0,3.66128 -4.09794,8.26307 -3.52692,3.99717 -7.35615,5.97896 0.40308,0.10077 3.96359,0.10077 0.43666,0 0.43666,0.53744 0,0.70538 -2.61999,0.70538 -2.14974,0 -3.62769,-0.6382 -0.80615,0.3023 -1.6459,0.3023 -3.35897,0 -3.12384,-4.70255 l -17.970487,20.221 q -0.638204,0.73897 -1.175639,0.73897 -1.007691,0 -1.007691,-1.6459 0,-1.6123 6.885888,-9.4387 l 6.986657,-7.62486 z m -1.24282,12.83127 q 3.89641,-2.21692 7.22179,-6.65076 3.35897,-4.43384 3.35897,-5.8782 0,-0.94051 -1.04128,-0.94051 -1.9818,0 -6.28128,3.76205 -3.09025,2.68717 -5.57589,5.50871 0.9741,0 1.44436,1.71307 0.6382,2.18333 0.87333,2.48564 z m -1.34359,0.47025 -0.60461,-2.21692 q -0.50385,-1.78025 -0.73897,-1.78025 -0.6718,0 -0.6718,2.2841 0,1.88102 1.34359,1.88102 0.36949,0 0.67179,-0.16795 z m 33.65688,1.41077 2.08256,-0.0672 q 0.43667,0 0.43667,0.53744 0,0.60461 -1.54513,0.73897 l -2.08256,0.10077 -9.37152,11.58845 q -8.43102,9.60665 -11.95794,9.60665 -1.67948,0 -1.67948,-2.25051 0,-5.00486 6.58358,-11.58845 6.61717,-6.54999 13.60383,-8.1287 l 6.95307,-8.96845 -5.50871,4.90409 q -5.03846,4.16513 -6.8523,4.16513 -2.11615,0 -2.11615,-2.98949 0,-2.5864 2.45204,-6.07973 l 4.09795,-5.17282 q -3.96359,3.52692 -9.10281,7.62487 -4.19871,3.32538 -5.67666,4.29948 -4.06435,2.72076 -6.58358,2.72076 -0.40308,0 -0.40308,-0.43666 0,-0.57103 0.6718,-0.73898 4.2323,-1.04128 11.68921,-7.1546 l 5.8782,-4.83692 3.79563,-3.35897 q 3.19103,-2.754354 3.5941,-2.754354 0.87333,0 1.6459,0.604614 0.80615,0.57103 0.80615,1.41077 l -5.30717,6.14691 q -5.30717,6.28128 -5.30717,8.36384 0,0.60461 0.67179,0.60461 2.01538,0 9.84178,-7.45691 5.74384,-5.47512 9.53948,-9.774603 0.77256,-0.873332 1.10846,-0.873332 0.6382,0 1.30999,0.470255 0.70539,0.436666 0.70539,1.041281 0,0.335899 -0.43667,0.806149 -6.1805,6.71794 -13.53665,16.89562 z m -5.10563,1.98179 q -6.75153,2.18333 -12.26024,7.96076 -5.47512,5.81102 -5.47512,9.53948 0,1.14205 0.80615,1.14205 3.22461,0 16.92921,-18.64229 z" />
    </g>
  </g>
</svg>
